<svg width="25" height="22" viewBox="0 0 25 22" fill="#fff" xmlns="http://www.w3.org/2000/svg">
<path d="M11.6648 4.18566L12.0039 4.81694L12.3431 4.18567C12.7245 3.47573 13.3659 2.51297 14.3184 1.76272L14.0801 1.46028L14.3184 1.76272C15.305 0.985529 16.4156 0.595937 17.6289 0.595937C21.0154 0.595937 23.6189 3.41431 23.6189 7.25371C23.6189 9.30632 22.815 11.0495 21.3487 12.8516C19.8726 14.6657 17.7533 16.5069 15.1567 18.7606L15.409 19.0514L15.1567 18.7606C14.2773 19.5239 13.2793 20.3902 12.2415 21.3146L12.2414 21.3147C12.175 21.3739 12.0907 21.4058 12.0039 21.4058C11.9171 21.4058 11.8329 21.3739 11.7665 21.3147L11.7663 21.3145C10.7289 20.3906 9.73109 19.5244 8.85246 18.7618L8.8517 18.7611L8.59933 19.0519L8.85169 18.7611C6.25483 16.5071 4.13531 14.6658 2.65917 12.8516C1.19279 11.0495 0.388906 9.30632 0.388906 7.25371C0.388906 3.41431 2.99241 0.595937 6.37891 0.595937C7.59217 0.595937 8.70279 0.985529 9.68944 1.76272L9.92767 1.46028L9.68944 1.76272C10.6419 2.51297 11.2833 3.47569 11.6648 4.18566Z" stroke="#474646" stroke-width="0.77"/>
</svg>
