<svg width="25" height="25" viewBox="0 0 25 25" fill="none" xmlns="http://www.w3.org/2000/svg">
<path d="M25 12.5C25 5.60773 19.3923 0 12.5 0C5.60773 0 0 5.60773 0 12.5C0 16.1405 1.56545 19.4218 4.05727 21.7082L4.04545 21.7186L4.45091 22.0605C4.47727 22.0827 4.50591 22.1009 4.53227 22.1227C4.74773 22.3014 4.97091 22.4709 5.19818 22.635C5.27182 22.6882 5.34545 22.7414 5.42045 22.7932C5.66318 22.9605 5.91227 23.1191 6.16682 23.2695C6.22227 23.3023 6.27818 23.3341 6.33409 23.3659C6.61273 23.5245 6.89727 23.6741 7.18864 23.8114C7.21 23.8214 7.23182 23.8305 7.25318 23.8405C8.20273 24.2818 9.21636 24.6059 10.2764 24.7973C10.3041 24.8023 10.3318 24.8073 10.36 24.8123C10.6891 24.8691 11.0218 24.9145 11.3586 24.945C11.3995 24.9486 11.4405 24.9509 11.4818 24.9545C11.8173 24.9823 12.1564 25 12.5 25C12.8405 25 13.1764 24.9823 13.51 24.9555C13.5523 24.9518 13.5945 24.9495 13.6368 24.9459C13.9709 24.9155 14.3009 24.8714 14.6268 24.8155C14.655 24.8105 14.6836 24.8055 14.7118 24.8C15.7559 24.6127 16.755 24.2959 17.6923 23.8659C17.7268 23.85 17.7618 23.835 17.7964 23.8186C18.0768 23.6868 18.3509 23.5445 18.6195 23.3932C18.6864 23.3555 18.7527 23.3173 18.8191 23.2782C19.0636 23.1341 19.3041 22.9836 19.5377 22.8236C19.6218 22.7664 19.7041 22.7059 19.7873 22.6459C19.9868 22.5023 20.1827 22.3541 20.3732 22.1991C20.4155 22.165 20.4609 22.1355 20.5023 22.1005L20.9182 21.7532L20.9059 21.7427C23.4195 19.4555 25 16.1591 25 12.5ZM0.909091 12.5C0.909091 6.10864 6.10864 0.909091 12.5 0.909091C18.8914 0.909091 24.0909 6.10864 24.0909 12.5C24.0909 15.9441 22.5795 19.0405 20.1868 21.165C20.0532 21.0727 19.9186 20.99 19.7809 20.9209L15.9323 18.9968C15.5868 18.8241 15.3723 18.4768 15.3723 18.0909V16.7468C15.4614 16.6368 15.5555 16.5123 15.6527 16.3755C16.1509 15.6718 16.5505 14.8891 16.8418 14.0468C17.4177 13.7732 17.7895 13.1995 17.7895 12.5518V10.9405C17.7895 10.5464 17.645 10.1641 17.3864 9.86364V7.74227C17.41 7.50591 17.4936 6.175 16.5305 5.07682C15.6927 4.12045 14.3368 3.63636 12.5 3.63636C10.6632 3.63636 9.30727 4.12045 8.46955 5.07636C7.50636 6.17455 7.59 7.50636 7.61364 7.74182V9.86318C7.35545 10.1636 7.21045 10.5459 7.21045 10.94V12.5514C7.21045 13.0518 7.435 13.5186 7.81955 13.8336C8.18773 15.2759 8.94545 16.3677 9.22545 16.7377V18.0532C9.22545 18.4241 9.02318 18.765 8.69727 18.9432L5.10318 20.9036C4.98864 20.9659 4.875 21.0386 4.76136 21.12C2.39818 18.9964 0.909091 15.9191 0.909091 12.5Z" fill="white"/>
</svg>
