<svg xmlns="http://www.w3.org/2000/svg" viewBox="0 0 338.06 106.08"><title>logo</title><path d="M85.34,58.47l.21-10.75a1.15,1.15,0,0,1,0-.33L85.72,38A14.63,14.63,0,0,0,71.78,23c-16.81-.81-33.84-.81-50.61,0a24.71,24.71,0,0,0-2.75.33A16,16,0,0,0,6.72,39l0,4.13L7.15,59s.14,14.72,5.08,25.24a48.76,48.76,0,0,0,24.69,25.53,51,51,0,0,0,4.9,2,16.09,16.09,0,0,0,10.24,0,48.44,48.44,0,0,0,28-24.52C84.16,78.46,85.19,66.72,85.34,58.47Z" transform="translate(-6.72 -6.49)" style="fill:#237834"/><path d="M85.34,58.47l.21-10.75a1.15,1.15,0,0,1,0-.33L85.72,38A14.63,14.63,0,0,0,71.78,23c-16.81-.81-33.84-.81-50.61,0a24.6,24.6,0,0,0-2.74.33h0l0,4,.37,15.87S19,58,23.92,68.53a48.79,48.79,0,0,0,24.7,25.53,50.88,50.88,0,0,0,4.89,2,16.09,16.09,0,0,0,10.24,0A47.61,47.61,0,0,0,80.5,86.32C84.23,77.67,85.19,66.44,85.34,58.47Z" transform="translate(-6.72 -6.49)" style="fill:#51af3d"/><path d="M121.23,58.72V24.35h21v2.53a4.67,4.67,0,0,1-4.67,4.68h-8v7.21h10.48v2.44A4.76,4.76,0,0,1,135.36,46h-5.72V58.72Z" transform="translate(-6.72 -6.49)" style="fill:#1d1d1b"/><path d="M155.45,39.92h3.66a4.46,4.46,0,0,0,3.22-1.1,4.17,4.17,0,0,0,1.15-3.13c0-1.89-.67-3.11-2-3.65a8.24,8.24,0,0,0-3.17-.48h-2.84ZM147,58.72V24.35h12a19.82,19.82,0,0,1,6.68.82,9.46,9.46,0,0,1,4.66,3.72A11.25,11.25,0,0,1,172,35.17a11.85,11.85,0,0,1-1.34,5.5,8.63,8.63,0,0,1-3.8,3.87v.09a20.89,20.89,0,0,1,1.3,2.07l6.68,12H165.5l-6.11-11.59h-3.94V58.72Z" transform="translate(-6.72 -6.49)" style="fill:#1d1d1b"/><polygon points="171.95 52.23 171.95 17.86 193.48 17.86 193.48 25.07 180.36 25.07 180.36 31.32 190.84 31.32 190.84 38.53 180.36 38.53 180.36 45.02 194.16 45.02 194.16 52.23 171.95 52.23" style="fill:#1d1d1b"/><polygon points="199.54 52.23 199.54 17.86 221.07 17.86 221.07 25.07 207.95 25.07 207.95 31.32 218.43 31.32 218.43 38.53 207.95 38.53 207.95 45.02 221.75 45.02 221.75 52.23 199.54 52.23" style="fill:#1d1d1b"/><path d="M242.26,51.51h3.46a9.06,9.06,0,0,0,6.89-2.6c1.66-1.73,2.48-4.21,2.48-7.45s-.83-5.65-2.5-7.35a9.19,9.19,0,0,0-6.87-2.55h-3.46Zm-8.41,7.21V24.35h12.2q8.17,0,13,4.54t4.78,12.57q0,8.07-4.78,12.67t-13,4.59Z" transform="translate(-6.72 -6.49)" style="fill:#1d1d1b"/><path d="M276.09,41.32a10.59,10.59,0,0,0,2.62,7.35,9,9,0,0,0,13.32,0,10.63,10.63,0,0,0,2.61-7.35,10,10,0,0,0-2.61-7,9.3,9.3,0,0,0-13.32,0,9.94,9.94,0,0,0-2.62,7m-8.7,0a17,17,0,0,1,5.05-12.53,19.16,19.16,0,0,1,25.86,0,17,17,0,0,1,5.05,12.53,17.62,17.62,0,0,1-5.05,12.83,18.83,18.83,0,0,1-25.86,0,17.62,17.62,0,0,1-5.05-12.83" transform="translate(-6.72 -6.49)" style="fill:#1d1d1b"/><path d="M307.33,58.72l2.84-34.37h9.13l5,14.51L326,44.54h.1q1-3.47,1.73-5.68l5-14.51H342l2.79,34.37h-8.41l-1.06-15.48c-.07-.77-.1-1.63-.1-2.6s0-1.73.05-2.3l.05-.87h-.1q-1.15,3.62-1.92,5.77l-3.6,9.95h-7.21l-3.61-9.95L317,37.47h-.1a42.62,42.62,0,0,1,0,5.77L315.8,58.72Z" transform="translate(-6.72 -6.49)" style="fill:#1d1d1b"/><path d="M121.19,95.83l1.72-20.75h5.51l3,8.76,1.05,3.43h.06c.38-1.39.73-2.54,1-3.43l3-8.76h5.52l1.68,20.75h-5.08l-.64-9.35q-.06-.69-.06-1.56c0-.58,0-1,0-1.4l0-.52H138c-.46,1.45-.85,2.61-1.16,3.48l-2.17,6h-4.36l-2.18-6L127,83h-.06a25.19,25.19,0,0,1,0,3.48l-.63,9.35Z" transform="translate(-6.72 -6.49)" style="fill:#1d1d1b"/><path d="M146.25,85.32a10.24,10.24,0,0,1,3.05-7.56,11.58,11.58,0,0,1,15.62,0A10.24,10.24,0,0,1,168,85.32a10.66,10.66,0,0,1-3.05,7.76,11.39,11.39,0,0,1-15.62,0A10.66,10.66,0,0,1,146.25,85.32Zm5.25,0a6.42,6.42,0,0,0,1.59,4.45,5.45,5.45,0,0,0,8,0,6.46,6.46,0,0,0,1.58-4.45,6,6,0,0,0-1.58-4.25,5.6,5.6,0,0,0-8,0A6,6,0,0,0,151.5,85.32Z" transform="translate(-6.72 -6.49)" style="fill:#1d1d1b"/><path d="M171.19,95.83V75.08h7.63a8.59,8.59,0,0,1,5.13,1.4,4.7,4.7,0,0,1,1.93,4,5.29,5.29,0,0,1-.64,2.54,4.72,4.72,0,0,1-1.77,1.88V85a4.06,4.06,0,0,1,2.45,1.81,5.44,5.44,0,0,1,.8,2.86,5.23,5.23,0,0,1-2.24,4.67,9.86,9.86,0,0,1-5.66,1.51Zm5.08-12.71h2.61a1.72,1.72,0,0,0,1.37-.55,2.06,2.06,0,0,0,.46-1.37,1.77,1.77,0,0,0-.48-1.28,1.92,1.92,0,0,0-1.44-.49h-2.52Zm0,8.36h3a2.09,2.09,0,0,0,1.62-.63,2.16,2.16,0,0,0,.58-1.55,2.12,2.12,0,0,0-.55-1.52,2.1,2.1,0,0,0-1.62-.6h-3.08Z" transform="translate(-6.72 -6.49)" style="fill:#1d1d1b"/><path d="M190,95.83V75.08h5.08V95.83Z" transform="translate(-6.72 -6.49)" style="fill:#1d1d1b"/><path d="M199.41,95.83V75.08h5.08v16.4H213v4.35Z" transform="translate(-6.72 -6.49)" style="fill:#1d1d1b"/><path d="M215.43,95.83V75.08h13v4.35h-7.93V83.2h6.33v4.36h-6.33v3.92h8.33v4.35Z" transform="translate(-6.72 -6.49)" style="fill:#1d1d1b"/><path d="M241.82,95.83l-5-20.75h5.34l2.62,13c.07.39.14.76.18,1.12a6.57,6.57,0,0,1,.08.8v.26h0a10.91,10.91,0,0,1,.35-2.18l3.2-13h4.09l3.11,13c.09.39.17.76.23,1.12s.1.62.12.8v.26h.05a11.47,11.47,0,0,1,.26-2.18l2.85-13h5.25L259.3,95.83h-5.66L251,85.35l-.41-2.44h-.06a15.33,15.33,0,0,1-.41,2.44l-2.61,10.48Z" transform="translate(-6.72 -6.49)" style="fill:#1d1d1b"/><path d="M265.57,85.32a10.24,10.24,0,0,1,3.05-7.56,11.58,11.58,0,0,1,15.62,0,10.24,10.24,0,0,1,3.05,7.56,10.66,10.66,0,0,1-3.05,7.76,11.39,11.39,0,0,1-15.62,0A10.66,10.66,0,0,1,265.57,85.32Zm5.25,0a6.42,6.42,0,0,0,1.59,4.45,5.45,5.45,0,0,0,8,0A6.46,6.46,0,0,0,282,85.32a6,6,0,0,0-1.58-4.25,5.6,5.6,0,0,0-8,0A6,6,0,0,0,270.82,85.32Z" transform="translate(-6.72 -6.49)" style="fill:#1d1d1b"/><path d="M290.51,95.83V75.08h7.23a12,12,0,0,1,4,.49,5.72,5.72,0,0,1,2.82,2.25,6.74,6.74,0,0,1,1,3.79,7.18,7.18,0,0,1-.82,3.32,5.14,5.14,0,0,1-2.29,2.34v.06a11.43,11.43,0,0,1,.78,1.25l4,7.25h-5.66l-3.69-7h-2.38v7Zm5.08-11.35h2.21a2.66,2.66,0,0,0,1.94-.67,2.45,2.45,0,0,0,.7-1.88,2.11,2.11,0,0,0-1.22-2.21,5.09,5.09,0,0,0-1.92-.29h-1.71Z" transform="translate(-6.72 -6.49)" style="fill:#1d1d1b"/><path d="M309.61,95.83V75.08h5.08v16.4h8.48v4.35Z" transform="translate(-6.72 -6.49)" style="fill:#1d1d1b"/><path d="M325.64,95.83V75.08H333a10.87,10.87,0,0,1,7.82,2.74,10,10,0,0,1,2.89,7.59,10.09,10.09,0,0,1-2.89,7.65A10.8,10.8,0,0,1,333,95.83Zm5.08-4.35h2.09A5.44,5.44,0,0,0,337,89.91a6.24,6.24,0,0,0,1.5-4.5A6.08,6.08,0,0,0,337,81a5.54,5.54,0,0,0-4.15-1.54h-2.09Z" transform="translate(-6.72 -6.49)" style="fill:#1d1d1b"/><path d="M83.45,7.09q-12.36-.6-24.86-.6t-24.91.6a16,16,0,0,0-14.94,12.8A17.88,17.88,0,0,1,21,19.61c16.89-.82,34-.82,50.94,0A18,18,0,0,1,89.14,38L89,47.78a1.86,1.86,0,0,1,0,.34l-.19,10.41A83.69,83.69,0,0,1,85.5,81.12C93,72.08,98,59.48,98.33,43.29l.21-10.47h0l.15-9.49A16,16,0,0,0,83.45,7.09Z" transform="translate(-6.72 -6.49)" style="fill:#0f5431"/><path d="M57.58,31.14H36.15a1.73,1.73,0,1,1,0-3.46H57.58a1.73,1.73,0,1,1,0,3.46Z" transform="translate(-6.72 -6.49)" style="fill:#fff"/></svg>